<svg xmlns="http://www.w3.org/2000/svg" viewBox="0 0 64 64" width="64" height="64" fill="none">
  <rect width="64" height="64" rx="12" fill="#0F172A" />
  <!-- big QR-like squares -->
  <rect x="6" y="6" width="18" height="18" rx="3" fill="#10B981" />
  <rect x="40" y="6" width="18" height="18" rx="3" fill="#10B981" />
  <rect x="6" y="40" width="18" height="18" rx="3" fill="#10B981" />

  <!-- small modules to hint QR pattern -->
  <rect x="30" y="24" width="4" height="4" rx="0.8" fill="#10B981" />
  <rect x="36" y="24" width="4" height="4" rx="0.8" fill="#10B981" />
  <rect x="30" y="30" width="4" height="4" rx="0.8" fill="#10B981" />
  <rect x="36" y="30" width="4" height="4" rx="0.8" fill="#10B981" />

  <rect x="24" y="36" width="4" height="4" rx="0.8" fill="#10B981" />
  <rect x="28" y="36" width="4" height="4" rx="0.8" fill="#10B981" />
  <rect x="32" y="36" width="4" height="4" rx="0.8" fill="#10B981" />

  <!-- central rounded square -->
  <rect x="26" y="18" width="12" height="12" rx="2" fill="#0F172A" />
</svg>
